<?xml version="1.0" encoding="utf-8"?>
<!-- Generator: Adobe Illustrator 24.2.3, SVG Export Plug-In . SVG Version: 6.00 Build 0)  -->
<svg version="1.1" id="Layer_1" xmlns="http://www.w3.org/2000/svg" xmlns:xlink="http://www.w3.org/1999/xlink" x="0px" y="0px"
	 viewBox="0 0 53 52" style="enable-background:new 0 0 53 52;" xml:space="preserve">
<style type="text/css">
	.st0{fill-rule:evenodd;clip-rule:evenodd;fill:#05BF85;}
	.st1{fill-rule:evenodd;clip-rule:evenodd;fill:#05BF85;fill-opacity:0.44;}
</style>
<g>
	<path class="st0" d="M30.1,12.1L43,20l-1,2l-6.7-3.1c1.5,4.6,0.4,9.6-3,13.1l1.7,9.3c0.1,0.4-0.2,0.7-0.6,0.7h-0.7
		c-0.4,0-0.7-0.3-0.8-0.7l-1.4-7.7C28.6,35,26.3,35.8,24,36v5.3c0,0.4-0.3,0.7-0.7,0.7c0,0,0,0,0,0h-0.6c-0.4,0-0.7-0.3-0.7-0.7l0,0
		V36c-2.3-0.2-4.6-1-6.5-2.3l-1.4,7.7C14,41.7,13.7,42,13.3,42h-0.7c-0.3,0-0.6-0.2-0.6-0.5c0-0.1,0-0.1,0-0.2l1.6-9.3
		c-5-5.2-4.9-13.4,0.3-18.4C18.3,9.4,25.1,8.8,30.1,12.1z M23,34c6.1,0,11-4.9,11-11s-4.9-11-11-11l0,0c-6.1,0-11,4.9-11,11
		S16.9,34,23,34z"/>
	<path class="st1" d="M23,34c6.1,0,11-4.9,11-11c0,0-22-0.1-22,0C12,29.1,16.9,34,23,34z"/>
</g>
</svg>
