<?xml version="1.0" encoding="utf-8"?>
<!-- Generator: Adobe Illustrator 24.2.3, SVG Export Plug-In . SVG Version: 6.00 Build 0)  -->
<svg version="1.1" id="Layer_1" xmlns="http://www.w3.org/2000/svg" xmlns:xlink="http://www.w3.org/1999/xlink" x="0px" y="0px"
	 viewBox="0 0 137.6 49.1" style="enable-background:new 0 0 137.6 49.1;" xml:space="preserve">
<style type="text/css">
	.st0{fill:#A41F35;}
	.st1{fill:#8B8B8C;}
	.st2{fill:#00E1FF;}
	.st3{fill:#5B1020;}
</style>
<g>
	<rect x="56.6" y="6.4" class="st0" width="20" height="8"/>
	<rect x="17.6" y="6.4" class="st0" width="8" height="26"/>
	<rect x="30.6" y="6.4" class="st0" width="8" height="38"/>
	<rect x="4.6" y="6.4" class="st0" width="8" height="38"/>
	<rect x="56.6" y="19.4" class="st0" width="8" height="25"/>
	<rect x="43.6" y="6.4" class="st0" width="8" height="8"/>
	<rect x="43.6" y="19.4" class="st1" width="8" height="25"/>
</g>
<g>
	<g>
		<circle class="st2" cx="90.9" cy="28.3" r="2.5"/>
		<circle class="st2" cx="123.6" cy="40.6" r="2.5"/>
		<circle class="st2" cx="116.2" cy="4.6" r="2.5"/>
	</g>
	<path d="M131.7,10.3c-2.1-2.8-6.8-3.6-12.9-2.1c-0.1-0.3-0.3-0.6-0.4-0.9c1.2-1.3,1.1-3.3-0.2-4.5c-0.9-0.8-2.2-1.1-3.4-0.6
		c-1.4-1.2-2.8-1.8-4.4-1.8c-1.8,0-3.4,0.8-5,2.4c-1.3,1.3-2.4,3.2-3.4,5.5C96,6.8,91.4,7.5,89.3,10.3c-2.4,3.2-1,8.4,3.6,13.9
		c-0.3,0.3-0.5,0.6-0.7,0.9c-1.7-0.5-3.5,0.5-3.9,2.2c-0.3,1.1,0,2.3,0.8,3.1c-1.3,3.1-1.2,5.8,0.3,7.7c1.4,1.9,4,2.8,7.4,2.8
		c1.7,0,3.5-0.2,5.5-0.7c1,2.3,2.1,4.1,3.4,5.5c1.5,1.6,3.2,2.4,5,2.4s3.4-0.8,5-2.4c1.3-1.3,2.4-3.2,3.4-5.5
		c0.4,0.1,0.8,0.2,1.3,0.3c0.2,1.8,1.8,3,3.5,2.8c1.4-0.2,2.5-1.2,2.8-2.5c2.4-0.3,4.2-1.3,5.3-2.7c2.4-3.2,1-8.4-3.6-13.9
		C132.7,18.7,134.1,13.5,131.7,10.3L131.7,10.3z M130.4,11.3c1.9,2.5,0.5,6.9-3.4,11.8c-1.8-1.9-3.7-3.7-5.7-5.3
		c-0.4-2.9-1-5.7-1.9-8.1C124.7,8.5,128.8,9.1,130.4,11.3L130.4,11.3z M117.9,38.4c-1.9-0.5-3.7-1.2-5.5-2c1.7-0.9,3.4-1.9,5-2.9
		c0.7-0.5,1.4-0.9,2.1-1.4C119.1,34.3,118.6,36.4,117.9,38.4L117.9,38.4z M103.1,38.4c-0.7-2.1-1.3-4.2-1.6-6.3
		c0.7,0.5,1.4,1,2.1,1.4c1.6,1.1,3.3,2,5,2.9C106.9,37.3,105,37.9,103.1,38.4L103.1,38.4z M103.1,10.1c1.9,0.5,3.7,1.2,5.5,2
		c-1.7,0.9-3.4,1.9-5,2.9c-0.7,0.5-1.4,0.9-2.1,1.4C101.9,14.2,102.4,12.1,103.1,10.1L103.1,10.1z M104.5,32.2
		c-1.1-0.7-2.2-1.5-3.2-2.3c-0.4-3.8-0.4-7.5,0-11.3c1-0.8,2.1-1.6,3.2-2.3c1.9-1.3,3.9-2.4,6-3.4c2.1,1,4.1,2.2,6,3.4
		c1.1,0.7,2.2,1.5,3.2,2.3c0.2,1.9,0.3,3.8,0.3,5.7c0,1.9-0.1,3.8-0.3,5.7c-1,0.8-2.1,1.6-3.2,2.3c-1.9,1.3-3.9,2.4-6,3.4
		C108.4,34.6,106.4,33.5,104.5,32.2L104.5,32.2z M99.5,28.5c-1.6-1.3-3.1-2.7-4.5-4.3c1.4-1.5,2.9-3,4.5-4.3
		c-0.1,1.4-0.2,2.8-0.2,4.3C99.3,25.7,99.4,27.1,99.5,28.5L99.5,28.5z M117.9,10.1c0.7,2.1,1.3,4.2,1.6,6.3c-0.7-0.5-1.4-1-2.1-1.4
		c-1.6-1.1-3.3-2-5-2.9C114.1,11.2,116,10.6,117.9,10.1z M121.5,20c1.6,1.3,3.1,2.7,4.5,4.3c-1.4,1.5-2.9,3-4.5,4.3
		c0.1-1.4,0.2-2.8,0.2-4.3S121.6,21.4,121.5,20L121.5,20z M117.7,5.1c0,0.9-0.7,1.6-1.6,1.6s-1.6-0.7-1.6-1.6s0.7-1.6,1.6-1.6
		C117,3.5,117.7,4.2,117.7,5.1z M110.5,1.9c1,0,2.1,0.4,3.1,1.2c-1.1,1.4-0.8,3.4,0.6,4.5c0.8,0.7,1.9,0.8,3,0.5
		c0.1,0.1,0.1,0.3,0.2,0.5c-2.3,0.7-4.6,1.5-6.8,2.5c-2.2-1-4.5-1.9-6.8-2.5C105.5,4.3,108,1.9,110.5,1.9z M90.6,11.3
		c1.6-2.2,5.7-2.8,11-1.6c-0.8,2.4-1.5,5.2-1.9,8.1c-2.1,1.6-4,3.4-5.7,5.3C90,18.2,88.7,13.7,90.6,11.3z M91.3,26.7
		c0.9,0,1.6,0.7,1.6,1.6c0,0.9-0.7,1.6-1.6,1.6s-1.6-0.7-1.6-1.6C89.7,27.4,90.4,26.7,91.3,26.7z M90.6,37.2
		c-1.3-1.7-0.9-4.1-0.2-5.9c1.7,0.5,3.5-0.4,4-2.1c0.3-1.1,0-2.4-0.8-3.2c0.1-0.2,0.3-0.3,0.4-0.5c1.8,1.9,3.7,3.7,5.7,5.3
		c0.4,2.9,1,5.7,1.9,8.1C96.3,40,92.2,39.4,90.6,37.2L90.6,37.2z M110.5,46.6c-2.5,0-5-2.4-6.8-6.7c2.3-0.7,4.6-1.5,6.8-2.5
		c2.2,1,4.5,1.9,6.8,2.5C115.5,44.2,113,46.6,110.5,46.6L110.5,46.6z M123.3,41.8c-0.9,0-1.6-0.7-1.6-1.6c0-0.9,0.7-1.6,1.6-1.6
		s1.6,0.7,1.6,1.6C124.9,41.1,124.2,41.8,123.3,41.8z M130.4,37.2c-0.8,1.1-2.2,1.8-4.1,2.1c-0.5-1.7-2.3-2.6-4-2.1
		c-0.9,0.3-1.7,1-2,1.8c-0.3-0.1-0.6-0.1-0.9-0.2c0.8-2.4,1.5-5.2,1.9-8.1c2.1-1.6,4-3.4,5.7-5.3C131,30.3,132.3,34.8,130.4,37.2z"
		/>
</g>
<g>
	<polygon class="st0" points="102.8,24.6 104.3,26.5 107.6,26.5 108.9,27.7 111.6,27.7 115.6,32.3 115.6,29.8 117.4,29.8 
		118.6,28.6 118.6,23.1 117.4,21.9 116.2,21.9 116.2,20.7 115,19.5 112.8,19.5 112.2,18.9 107.3,18.9 105.8,20.1 104.6,20.1 
		102.8,21.9 	"/>
	<g>
		<path class="st3" d="M107.9,26.5h-0.6v-1.8c0-0.1,0-0.2,0.1-0.2l1.2-1.2c0.1-0.1,0.1-0.1,0.2-0.1h3.5l0.8-0.8l0.4,0.4l-0.9,0.9
			c-0.1,0.1-0.1,0.1-0.2,0.1H109l-1,1V26.5z"/>
		<path class="st3" d="M113.1,25.9h-3.4v-0.6h3.2l0.8-0.8l0.4,0.4l-0.9,0.9C113.3,25.8,113.2,25.9,113.1,25.9z"/>
		<path class="st3" d="M112.2,21.3h-0.6v-0.9c0-0.1,0-0.2,0.1-0.2l0.9-0.9l0.4,0.4l-0.8,0.8V21.3z"/>
		<path class="st3" d="M115.9,29.8h-0.6V29l-0.8-0.8c-0.1-0.1-0.1-0.1-0.1-0.2v-1.2c0-0.1,0-0.2,0.1-0.2l0.9-0.9
			c0.1-0.1,0.1-0.1,0.2-0.1h0.9v0.6h-0.8l-0.7,0.7v1l0.8,0.8c0.1,0.1,0.1,0.1,0.1,0.2V29.8z"/>
		<path class="st3" d="M114.7,22.8h-0.3v-0.6h0.2l0.5-0.5c0.1-0.1,0.1-0.1,0.2-0.1h0.9v0.6h-0.8l-0.5,0.5
			C114.8,22.8,114.7,22.8,114.7,22.8z"/>
		<path class="st3" d="M107,21.9h-0.6v-0.8l-0.8-0.8l0.4-0.4l0.9,0.9c0.1,0.1,0.1,0.1,0.1,0.2L107,21.9L107,21.9z"/>
		<path class="st3" d="M104.9,24.3h-0.6v-0.6c0-0.1,0-0.2,0.1-0.2l0.6-0.6c0.1-0.1,0.1-0.1,0.2-0.1h1.8v0.6h-1.7l-0.4,0.4V24.3z"/>
		<path class="st3" d="M117.7,25.3h-0.6v-0.5l-0.4-0.4h-1.1v-0.6h1.2c0.1,0,0.2,0,0.2,0.1l0.6,0.6c0.1,0.1,0.1,0.1,0.1,0.2V25.3z"/>
		<path class="st3" d="M109.2,21.9h-0.6v-0.6c0-0.1,0-0.2,0.1-0.2l0.6-0.6c0.1-0.1,0.1-0.1,0.2-0.1h0.6V21h-0.5l-0.4,0.4V21.9z"/>
		<path class="st3" d="M117.4,28.3h-0.6c-0.1,0-0.2,0-0.2-0.1l-0.6-0.6l0.4-0.4l0.5,0.5h0.5V28.3z"/>
		<rect x="113.4" y="27.4" class="st3" width="1.2" height="0.6"/>
		<polygon class="st3" points="102.8,24.6 107.6,24.6 109.2,26.2 112.8,26.2 115.6,32.3 111.6,27.7 108.9,27.7 107.6,26.5 
			104.3,26.5 		"/>
		<polygon class="st3" points="115,19.5 115,21.9 116.2,21.9 116.2,20.7 		"/>
		<polygon class="st3" points="115.6,29.8 117.4,29.8 118.6,28.6 115.6,28.6 		"/>
		<polygon class="st3" points="107.3,18.9 107.3,21 106.7,21 105.8,20.1 		"/>
		<polyline class="st3" points="117.4,22.2 117.4,28.6 118.6,28.6 118.6,23.1 117.4,22.2 		"/>
	</g>
	<path d="M118.6,23l-1.2-1.2c-0.1-0.1-0.1-0.1-0.2-0.1h-0.9v-0.9c0-0.1,0-0.2-0.1-0.2l-1.2-1.2c-0.1-0.1-0.1-0.1-0.2-0.1h-2
		l-0.5-0.5c-0.1-0.1-0.1-0.1-0.2-0.1h-4.9c-0.1,0-0.1,0-0.2,0.1l-1.4,1.2h-1.1c-0.1,0-0.2,0-0.2,0.1l-1.8,1.8
		c-0.1,0.1-0.1,0.1-0.1,0.2v2.7c0,0.1,0,0.1,0.1,0.2l1.5,1.8c0.1,0.1,0.1,0.1,0.2,0.1h3.2l1.1,1.1c0.1,0.1,0.1,0.1,0.2,0.1h2.6
		l3.9,4.5c0.1,0.1,0.1,0.1,0.2,0.1c0,0,0.1,0,0.1,0c0.1,0,0.2-0.2,0.2-0.3v-2.1h1.5c0.1,0,0.2,0,0.2-0.1l1.2-1.2
		c0.1-0.1,0.1-0.1,0.1-0.2v-5.5C118.7,23.1,118.7,23.1,118.6,23z M118.1,28.6l-1,1h-1.4V29c0-0.1,0-0.2-0.1-0.2l-0.8-0.8v-1l0.7-0.7
		h0.8v-0.6h-0.9c-0.1,0-0.2,0-0.2,0.1l-0.9,0.9c-0.1,0.1-0.1,0.1-0.1,0.2v0.6h-0.9v0.6h0.9c0,0.1,0,0.2,0.1,0.2l0.8,0.8v0.8v1.6
		l-3-3.5h0.6v-0.6h-1.2h-2.6l-1-1v-1.6l1-1h3.5c0.1,0,0.2,0,0.2-0.1l0.9-0.9l-0.4-0.4l-0.8,0.8h-3.5c-0.1,0-0.2,0-0.2,0.1l-1.2,1.2
		c-0.1,0.1-0.1,0.1-0.1,0.2v1.5h-2.9l-1.4-1.6v-2.5l1.7-1.7h1l0.7,0.7V22h0.6v-0.9c0-0.1,0-0.2-0.1-0.2l-0.7-0.7l1.2-0.9h4.6
		l0.3,0.3l-0.7,0.7c-0.1,0.1-0.1,0.1-0.1,0.2v0.9h0.6v-0.8l0.7-0.7h1.9l1,1v0.8H115c-0.1,0-0.2,0-0.2,0.1l-0.5,0.5h-0.2v0.6h0.3
		c0.1,0,0.2,0,0.2-0.1l0.5-0.5h0.8h1.1l1,1V28.6z"/>
	<path d="M113,25.3h-3.2v0.6h3.4c0.1,0,0.2,0,0.2-0.1l0.9-0.9l-0.4-0.4L113,25.3z"/>
	<path d="M105,22.9l-0.6,0.6c-0.1,0.1-0.1,0.1-0.1,0.2v0.6h0.6v-0.5l0.4-0.4h1.7v-0.6h-1.8C105.1,22.8,105,22.9,105,22.9z"/>
	<path d="M116.8,23.7h-1.2v0.6h1.1l0.4,0.4v0.5h0.6v-0.6c0-0.1,0-0.2-0.1-0.2l-0.6-0.6C116.9,23.8,116.9,23.7,116.8,23.7z"/>
	<path d="M109.3,20.5l-0.6,0.6c-0.1,0.1-0.1,0.1-0.1,0.2v0.6h0.6v-0.5l0.4-0.4h0.5v-0.6h-0.6C109.4,20.4,109.3,20.4,109.3,20.5z"/>
	<path d="M116.4,27.2l-0.4,0.4l0.6,0.6c0.1,0.1,0.1,0.1,0.2,0.1h0.6v-0.6h-0.5L116.4,27.2z"/>
</g>
</svg>
